<svg viewBox="0 0 330 166" fill="none" xmlns="http://www.w3.org/2000/svg">
<path d="M247.346 165V83H329.346V165H247.346Z" stroke="#272727" stroke-width="0.719298"/>
<path d="M250.82 122.281C251.223 113.203 254.856 104.96 260.596 98.6807" stroke="#272727" stroke-width="0.719298"/>
<path d="M263.027 96.2567C269.314 90.5095 277.549 86.8843 286.627 86.4814" stroke="#272727" stroke-width="0.719298"/>
<path d="M290.065 86.4814C299.136 86.8843 307.372 90.5095 313.658 96.2567" stroke="#F2F2F2" stroke-width="0.719298"/>
<path d="M316.089 98.6807C321.822 104.96 325.462 113.203 325.865 122.281" stroke="#F2F2F2" stroke-width="0.719298"/>
<path d="M260.596 149.319C254.856 143.039 251.223 134.796 250.82 125.719" stroke="#272727" stroke-width="0.719298"/>
<path d="M286.627 161.518C277.549 161.116 269.314 157.49 263.027 151.743" stroke="#F2F2F2" stroke-width="0.719298"/>
<path d="M313.658 151.743C307.372 157.49 299.136 161.116 290.065 161.518" stroke="#F2F2F2" stroke-width="0.719298"/>
<path d="M325.865 125.719C325.462 134.796 321.822 143.039 316.089 149.319" stroke="#F2F2F2" stroke-width="0.719298"/>
<path d="M282.541 123.883L286.496 127.877L294.605 119.69" stroke="#0A0A0A" stroke-width="0.719298"/>
<path d="M1.34619 83V1H83.3462V83H1.34619Z" stroke="#272727" stroke-width="0.719298"/>
<path d="M4.7627 4.41699L4.7627 40.292" stroke="#272727" stroke-width="0.719298"/>
<path d="M11.5962 4.41699L11.5962 40.292" stroke="#272727" stroke-width="0.719298"/>
<path d="M18.4297 4.41699L18.4297 40.292" stroke="#272727" stroke-width="0.719298"/>
<path d="M25.2627 4.41699L25.2627 40.292" stroke="#272727" stroke-width="0.719298"/>
<path d="M32.0962 4.41699L32.0962 40.292" stroke="#272727" stroke-width="0.719298"/>
<path d="M38.9297 4.41699L38.9297 40.292" stroke="#272727" stroke-width="0.719298"/>
<path d="M4.7627 43.708L4.7627 79.583" stroke="#272727" stroke-width="0.719298"/>
<path d="M11.5962 43.708L11.5962 79.583" stroke="#272727" stroke-width="0.719298"/>
<path d="M18.4297 43.708L18.4297 79.583" stroke="#272727" stroke-width="0.719298"/>
<path d="M25.2627 43.708L25.2627 79.583" stroke="#272727" stroke-width="0.719298"/>
<path d="M32.0962 43.708L32.0962 79.583" stroke="#272727" stroke-width="0.719298"/>
<path d="M38.9297 43.708L38.9297 79.583" stroke="#272727" stroke-width="0.719298"/>
<path d="M83.3462 83V1H165.346V83H83.3462Z" stroke="#272727" stroke-width="0.719298"/>
<path d="M127.763 4.41699L127.763 40.292" stroke="#272727" stroke-width="0.719298"/>
<path d="M134.596 4.41699L134.596 40.292" stroke="#272727" stroke-width="0.719298"/>
<path d="M141.43 4.41699L141.43 40.292" stroke="#272727" stroke-width="0.719298"/>
<path d="M148.263 4.41699L148.263 40.292" stroke="#272727" stroke-width="0.719298"/>
<path d="M155.096 4.41699L155.096 40.292" stroke="#272727" stroke-width="0.719298"/>
<path d="M161.93 4.41699L161.93 40.292" stroke="#272727" stroke-width="0.719298"/>
<path d="M127.763 43.708L127.763 79.583" stroke="#272727" stroke-width="0.719298"/>
<path d="M134.596 43.708L134.596 79.583" stroke="#272727" stroke-width="0.719298"/>
<path d="M141.43 43.708L141.43 79.583" stroke="#272727" stroke-width="0.719298"/>
<path d="M148.263 43.708L148.263 79.583" stroke="#272727" stroke-width="0.719298"/>
<path d="M155.096 43.708L155.096 79.583" stroke="#272727" stroke-width="0.719298"/>
<path d="M161.93 43.708L161.93 79.583" stroke="#272727" stroke-width="0.719298"/>
<path d="M52.5967 4.41797L52.5967 6.10874" stroke="#272727" stroke-width="0.719298"/>
<path d="M59.4297 4.41797L59.4297 9.5233" stroke="#272727" stroke-width="0.719298"/>
<path d="M66.2632 4.41797L66.2632 12.9386" stroke="#272727" stroke-width="0.719298"/>
<path d="M73.0967 4.41797L73.0967 18.1113" stroke="#272727" stroke-width="0.719298"/>
<path d="M79.9297 4.41797L79.9297 24.0624" stroke="#272727" stroke-width="0.719298"/>
<path d="M86.7632 4.41797L86.7632 29.9804" stroke="#272727" stroke-width="0.719298"/>
<path d="M93.5967 4.41797L93.5967 35.1539" stroke="#272727" stroke-width="0.719298"/>
<path d="M100.43 4.41797L100.43 38.5685" stroke="#272727" stroke-width="0.719298"/>
<path d="M107.263 4.41797L107.263 40.293" stroke="#272727" stroke-width="0.719298"/>
<path d="M114.097 4.41797L114.097 40.293" stroke="#272727" stroke-width="0.719298"/>
<path d="M120.93 4.41797L120.93 40.293" stroke="#272727" stroke-width="0.719298"/>
<path d="M45.7632 43.708L45.7632 79.583" stroke="#272727" stroke-width="0.719298"/>
<path d="M52.5967 43.708L52.5967 79.583" stroke="#272727" stroke-width="0.719298"/>
<path d="M59.4297 45.4316L59.4297 79.5828" stroke="#272727" stroke-width="0.719298"/>
<path d="M66.2632 48.8477L66.2632 79.5836" stroke="#272727" stroke-width="0.719298"/>
<path d="M73.0967 54.0205L73.0967 79.583" stroke="#272727" stroke-width="0.719298"/>
<path d="M79.9297 59.9717L79.9297 79.5831" stroke="#272727" stroke-width="0.719298"/>
<path d="M86.7632 65.8896L86.7632 79.5837" stroke="#272727" stroke-width="0.719298"/>
<path d="M93.5967 71.0625L93.5967 79.5831" stroke="#272727" stroke-width="0.719298"/>
<path d="M100.43 74.4775L100.43 79.5836" stroke="#272727" stroke-width="0.719298"/>
<path d="M107.263 77.8926L107.263 79.5833" stroke="#272727" stroke-width="0.719298"/>
<path d="M52.5967 40.293L52.5967 6.109" stroke="#F2F2F2" stroke-opacity="0.25" stroke-width="0.719298"/>
<path d="M45.7632 40.293L45.7632 4.41797" stroke="#F2F2F2" stroke-opacity="0.25" stroke-width="0.719298"/>
<path d="M120.93 79.583L120.93 43.7087" stroke="#F2F2F2" stroke-width="0.719298"/>
<path d="M114.097 43.708L114.097 79.583" stroke="#F2F2F2" stroke-opacity="0.8" stroke-width="0.719298"/>
<path d="M107.263 43.708L107.263 77.892" stroke="#F2F2F2" stroke-opacity="0.7" stroke-width="0.719298"/>
<path d="M59.4297 45.4316L59.4297 43.7086" stroke="#F2F2F2" stroke-opacity="0.25" stroke-width="0.719298"/>
<path d="M59.4297 40.293L59.4297 9.52356" stroke="#F2F2F2" stroke-opacity="0.25" stroke-width="0.719298"/>
<path d="M100.431 38.5684L100.431 40.2928" stroke="#F2F2F2" stroke-opacity="0.6" stroke-width="0.719298"/>
<path d="M100.431 43.708L100.431 74.4767" stroke="#F2F2F2" stroke-opacity="0.6" stroke-width="0.719298"/>
<path d="M66.2632 48.8477L66.2632 43.7086" stroke="#F2F2F2" stroke-opacity="0.25" stroke-width="0.719298"/>
<path d="M66.2632 40.2939L66.2632 12.9398" stroke="#F2F2F2" stroke-opacity="0.25" stroke-width="0.719298"/>
<path d="M93.5967 35.1543L93.5967 40.2933" stroke="#F2F2F2" stroke-opacity="0.5" stroke-width="0.719298"/>
<path d="M93.5967 43.709L93.5967 71.0631" stroke="#F2F2F2" stroke-opacity="0.5" stroke-width="0.719298"/>
<path d="M73.0967 40.2939L73.0967 18.1126" stroke="#F2F2F2" stroke-opacity="0.25" stroke-width="0.719298"/>
<path d="M73.0967 54.0215L73.0967 43.7097" stroke="#F2F2F2" stroke-opacity="0.25" stroke-width="0.719298"/>
<path d="M86.7632 43.708L86.7632 65.8887" stroke="#F2F2F2" stroke-opacity="0.4" stroke-width="0.719298"/>
<path d="M86.7632 29.9805L86.7632 40.293" stroke="#F2F2F2" stroke-opacity="0.4" stroke-width="0.719298"/>
<path d="M79.9297 40.293L79.9297 24.0627" stroke="#F2F2F2" stroke-opacity="0.3" stroke-width="0.719298"/>
<path d="M79.9297 59.9717L79.9297 43.7088" stroke="#F2F2F2" stroke-opacity="0.3" stroke-width="0.719298"/>
<path d="M1.34619 165V83H83.3462V165H1.34619Z" stroke="#272727" stroke-width="0.719298"/>
<path d="M4.7627 86.417L4.7627 122.292" stroke="#272727" stroke-width="0.719298"/>
<path d="M11.5962 86.417L11.5962 122.292" stroke="#272727" stroke-width="0.719298"/>
<path d="M18.4297 86.417L18.4297 122.292" stroke="#272727" stroke-width="0.719298"/>
<path d="M25.2627 86.417L25.2627 122.292" stroke="#272727" stroke-width="0.719298"/>
<path d="M32.0962 86.417L32.0962 122.292" stroke="#272727" stroke-width="0.719298"/>
<path d="M38.9297 86.417L38.9297 122.292" stroke="#272727" stroke-width="0.719298"/>
<path d="M45.7627 86.417L45.7627 122.292" stroke="#272727" stroke-width="0.719298"/>
<path d="M52.5962 86.417L52.5962 122.292" stroke="#272727" stroke-width="0.719298"/>
<path d="M59.4297 86.417L59.4297 122.292" stroke="#272727" stroke-width="0.719298"/>
<path d="M66.2627 86.417L66.2627 122.292" stroke="#272727" stroke-width="0.719298"/>
<path d="M73.0962 86.417L73.0962 122.292" stroke="#272727" stroke-width="0.719298"/>
<path d="M79.9297 86.417L79.9297 122.292" stroke="#272727" stroke-width="0.719298"/>
<path d="M4.7627 125.708L4.7627 161.583" stroke="#272727" stroke-width="0.719298"/>
<path d="M11.5962 125.708L11.5962 161.583" stroke="#272727" stroke-width="0.719298"/>
<path d="M18.4297 125.708L18.4297 161.583" stroke="#272727" stroke-width="0.719298"/>
<path d="M25.2627 125.708L25.2627 161.583" stroke="#272727" stroke-width="0.719298"/>
<path d="M32.0962 125.708L32.0962 161.583" stroke="#272727" stroke-width="0.719298"/>
<path d="M38.9297 125.708L38.9297 161.583" stroke="#272727" stroke-width="0.719298"/>
<path d="M45.7627 125.708L45.7627 161.583" stroke="#272727" stroke-width="0.719298"/>
<path d="M52.5962 125.708L52.5962 161.583" stroke="#272727" stroke-width="0.719298"/>
<path d="M59.4297 125.708L59.4297 161.583" stroke="#272727" stroke-width="0.719298"/>
<path d="M66.2627 125.708L66.2627 161.583" stroke="#272727" stroke-width="0.719298"/>
<path d="M73.0962 125.708L73.0962 161.583" stroke="#272727" stroke-width="0.719298"/>
<path d="M79.9297 125.708L79.9297 161.583" stroke="#272727" stroke-width="0.719298"/>
<path d="M83.3462 165V83H165.346V165H83.3462Z" stroke="#272727" stroke-width="0.719298"/>
<path d="M86.7627 86.417L86.7627 122.292" stroke="#272727" stroke-width="0.719298"/>
<path d="M93.5962 86.417L93.5962 122.292" stroke="#272727" stroke-width="0.719298"/>
<path d="M100.43 86.417L100.43 122.292" stroke="#272727" stroke-width="0.719298"/>
<path d="M107.263 86.417L107.263 122.292" stroke="#272727" stroke-width="0.719298"/>
<path d="M114.096 86.417L114.096 122.292" stroke="#272727" stroke-width="0.719298"/>
<path d="M120.93 86.417L120.93 122.292" stroke="#272727" stroke-width="0.719298"/>
<path d="M127.763 86.417L127.763 122.292" stroke="#272727" stroke-width="0.719298"/>
<path d="M134.596 86.417L134.596 122.292" stroke="#272727" stroke-width="0.719298"/>
<path d="M141.43 86.417L141.43 122.292" stroke="#272727" stroke-width="0.719298"/>
<path d="M148.263 86.417L148.263 122.292" stroke="#272727" stroke-width="0.719298"/>
<path d="M155.096 86.417L155.096 122.292" stroke="#272727" stroke-width="0.719298"/>
<path d="M161.93 86.417L161.93 122.292" stroke="#272727" stroke-width="0.719298"/>
<path d="M86.7627 125.708L86.7627 161.583" stroke="#272727" stroke-width="0.719298"/>
<path d="M93.5962 125.708L93.5962 161.583" stroke="#272727" stroke-width="0.719298"/>
<path d="M100.43 125.708L100.43 161.583" stroke="#272727" stroke-width="0.719298"/>
<path d="M107.263 125.708L107.263 161.583" stroke="#272727" stroke-width="0.719298"/>
<path d="M114.096 125.708L114.096 161.583" stroke="#272727" stroke-width="0.719298"/>
<path d="M120.93 125.708L120.93 161.583" stroke="#272727" stroke-width="0.719298"/>
<path d="M127.763 125.708L127.763 161.583" stroke="#272727" stroke-width="0.719298"/>
<path d="M134.596 125.708L134.596 161.583" stroke="#272727" stroke-width="0.719298"/>
<path d="M141.43 125.708L141.43 161.583" stroke="#272727" stroke-width="0.719298"/>
<path d="M148.263 125.708L148.263 161.583" stroke="#272727" stroke-width="0.719298"/>
<path d="M155.096 125.708L155.096 161.583" stroke="#272727" stroke-width="0.719298"/>
<path d="M161.93 125.708L161.93 161.583" stroke="#272727" stroke-width="0.719298"/>
<path d="M247.346 83V1H329.346V83H247.346Z" stroke="#272727" stroke-width="0.719298"/>
<path d="M250.763 4.41699L250.763 40.292" stroke="#272727" stroke-width="0.719298"/>
<path d="M257.596 4.41699L257.596 40.292" stroke="#272727" stroke-width="0.719298"/>
<path d="M264.43 4.41699L264.43 40.292" stroke="#272727" stroke-width="0.719298"/>
<path d="M271.263 4.41699L271.263 40.292" stroke="#272727" stroke-width="0.719298"/>
<path d="M278.096 4.41699L278.096 40.292" stroke="#272727" stroke-width="0.719298"/>
<path d="M284.93 4.41699L284.93 40.292" stroke="#272727" stroke-width="0.719298"/>
<path d="M291.763 4.41699L291.763 40.292" stroke="#272727" stroke-width="0.719298"/>
<path d="M298.596 4.41699L298.596 40.292" stroke="#272727" stroke-width="0.719298"/>
<path d="M305.43 4.41699L305.43 40.292" stroke="#272727" stroke-width="0.719298"/>
<path d="M312.263 4.41699L312.263 40.292" stroke="#272727" stroke-width="0.719298"/>
<path d="M319.096 4.41699L319.096 40.292" stroke="#272727" stroke-width="0.719298"/>
<path d="M325.93 4.41699L325.93 40.292" stroke="#272727" stroke-width="0.719298"/>
<path d="M250.763 43.708L250.763 79.583" stroke="#272727" stroke-width="0.719298"/>
<path d="M257.596 43.708L257.596 79.583" stroke="#272727" stroke-width="0.719298"/>
<path d="M264.43 43.708L264.43 79.583" stroke="#272727" stroke-width="0.719298"/>
<path d="M271.263 43.708L271.263 79.583" stroke="#272727" stroke-width="0.719298"/>
<path d="M278.096 43.708L278.096 79.583" stroke="#272727" stroke-width="0.719298"/>
<path d="M284.93 43.708L284.93 79.583" stroke="#272727" stroke-width="0.719298"/>
<path d="M291.763 43.708L291.763 79.583" stroke="#272727" stroke-width="0.719298"/>
<path d="M298.596 43.708L298.596 79.583" stroke="#272727" stroke-width="0.719298"/>
<path d="M305.43 43.708L305.43 79.583" stroke="#272727" stroke-width="0.719298"/>
<path d="M312.263 43.708L312.263 79.583" stroke="#272727" stroke-width="0.719298"/>
<path d="M319.096 43.708L319.096 79.583" stroke="#272727" stroke-width="0.719298"/>
<path d="M325.93 43.708L325.93 79.583" stroke="#272727" stroke-width="0.719298"/>
<path d="M165.346 165V83H247.346V165H165.346Z" stroke="#272727" stroke-width="0.719298"/>
<path d="M168.763 86.417L168.763 122.292" stroke="#272727" stroke-width="0.719298"/>
<path d="M175.596 86.417L175.596 122.292" stroke="#272727" stroke-width="0.719298"/>
<path d="M182.43 86.417L182.43 122.292" stroke="#272727" stroke-width="0.719298"/>
<path d="M189.263 86.417L189.263 122.292" stroke="#272727" stroke-width="0.719298"/>
<path d="M196.096 86.417L196.096 122.292" stroke="#272727" stroke-width="0.719298"/>
<path d="M202.93 86.417L202.93 122.292" stroke="#272727" stroke-width="0.719298"/>
<path d="M209.763 86.417L209.763 122.292" stroke="#272727" stroke-width="0.719298"/>
<path d="M216.596 86.417L216.596 122.292" stroke="#272727" stroke-width="0.719298"/>
<path d="M223.43 86.417L223.43 122.292" stroke="#272727" stroke-width="0.719298"/>
<path d="M230.263 86.417L230.263 122.292" stroke="#272727" stroke-width="0.719298"/>
<path d="M237.096 86.417L237.096 122.292" stroke="#272727" stroke-width="0.719298"/>
<path d="M243.93 86.417L243.93 122.292" stroke="#272727" stroke-width="0.719298"/>
<path d="M168.763 125.708L168.763 161.583" stroke="#272727" stroke-width="0.719298"/>
<path d="M175.596 125.708L175.596 161.583" stroke="#272727" stroke-width="0.719298"/>
<path d="M182.43 125.708L182.43 161.583" stroke="#272727" stroke-width="0.719298"/>
<path d="M189.263 125.708L189.263 161.583" stroke="#272727" stroke-width="0.719298"/>
<path d="M196.096 125.708L196.096 161.583" stroke="#272727" stroke-width="0.719298"/>
<path d="M202.93 125.708L202.93 161.583" stroke="#272727" stroke-width="0.719298"/>
<path d="M209.763 125.708L209.763 161.583" stroke="#272727" stroke-width="0.719298"/>
<path d="M216.596 125.708L216.596 161.583" stroke="#272727" stroke-width="0.719298"/>
<path d="M223.43 125.708L223.43 161.583" stroke="#272727" stroke-width="0.719298"/>
<path d="M230.263 125.708L230.263 161.583" stroke="#272727" stroke-width="0.719298"/>
<path d="M237.096 125.708L237.096 161.583" stroke="#272727" stroke-width="0.719298"/>
<path d="M243.93 125.708L243.93 161.583" stroke="#272727" stroke-width="0.719298"/>
<path d="M165.346 83V1H247.346V83H165.346Z" stroke="#272727" stroke-width="0.719298"/>
<path d="M206.346 30.0606L206.346 4.4541" stroke="#272727" stroke-width="0.719298"/>
<path d="M206.346 8.11219L206.346 4.4541" stroke="#F2F2F2" stroke-width="0.719298"/>
<path d="M206.346 79.5479V53.9414" stroke="#F2F2F2" stroke-width="0.719298"/>
<path d="M212.316 31.6599L224.51 10.54" stroke="#272727" stroke-width="0.719298"/>
<path d="M222.071 14.7634L225.12 9.4834" stroke="#F2F2F2" stroke-width="0.719298"/>
<path d="M187.573 74.5177L200.376 52.3418" stroke="#272727" stroke-width="0.719298"/>
<path d="M216.687 36.0305L237.807 23.8369" stroke="#272727" stroke-width="0.719298"/>
<path d="M229.36 28.7133L238.863 23.2266" stroke="#F2F2F2" stroke-width="0.719298"/>
<path d="M173.829 60.774L196.005 47.9707" stroke="#272727" stroke-width="0.719298"/>
<path d="M218.288 42.001H242.675" stroke="#272727" stroke-width="0.719298"/>
<path d="M228.042 42.001L243.894 42.001" stroke="#F2F2F2" stroke-width="0.719298"/>
<path d="M168.8 42.001L194.406 42.001" stroke="#272727" stroke-width="0.719298"/>
<path d="M216.687 47.9724L237.807 60.166" stroke="#272727" stroke-width="0.719298"/>
<path d="M220.911 50.4108L238.863 60.7754" stroke="#F2F2F2" stroke-width="0.719298"/>
<path d="M173.829 23.228L196.005 36.0312" stroke="#272727" stroke-width="0.719298"/>
<path d="M212.316 52.342L224.51 73.4619" stroke="#272727" stroke-width="0.719298"/>
<path d="M212.316 52.3406L225.12 74.5166" stroke="#F2F2F2" stroke-width="0.719298"/>
<path d="M187.573 9.48231L200.376 31.6582" stroke="#272727" stroke-width="0.719298"/>
<rect x="329.702" y="166" width="328.702" height="83" transform="rotate(-180 329.702 166)" fill="url(#paint0_linear_8565_200246)"/>
<defs>
<linearGradient id="paint0_linear_8565_200246" x1="329.702" y1="249" x2="329.702" y2="166" gradientUnits="userSpaceOnUse">
<stop stop-color="#0A0A0A" stop-opacity="0"/>
<stop offset="1" stop-color="#0A0A0A"/>
</linearGradient>
</defs>
</svg>
